<svg xmlns="http://www.w3.org/2000/svg" viewBox="0 0 600 600" width="600" height="600">
  <rect width="600" height="600" fill="#F6E4C8"/>
  
    <g>
      <circle cx="420.0" cy="280.0" r="13.2" fill="#C9772F"/><circle cx="415.1" cy="313.8" r="13.2" fill="#C9772F"/><circle cx="401.0" cy="344.9" r="13.2" fill="#C9772F"/><circle cx="378.6" cy="370.7" r="13.2" fill="#C9772F"/><circle cx="349.8" cy="389.2" r="13.2" fill="#C9772F"/><circle cx="317.1" cy="398.8" r="13.2" fill="#C9772F"/><circle cx="282.9" cy="398.8" r="13.2" fill="#C9772F"/><circle cx="250.2" cy="389.2" r="13.2" fill="#C9772F"/><circle cx="221.4" cy="370.7" r="13.2" fill="#C9772F"/><circle cx="199.0" cy="344.9" r="13.2" fill="#C9772F"/><circle cx="184.9" cy="313.8" r="13.2" fill="#C9772F"/><circle cx="180.0" cy="280.0" r="13.2" fill="#C9772F"/><circle cx="184.9" cy="246.2" r="13.2" fill="#C9772F"/><circle cx="199.0" cy="215.1" r="13.2" fill="#C9772F"/><circle cx="221.4" cy="189.3" r="13.2" fill="#C9772F"/><circle cx="250.2" cy="170.8" r="13.2" fill="#C9772F"/><circle cx="282.9" cy="161.2" r="13.2" fill="#C9772F"/><circle cx="317.1" cy="161.2" r="13.2" fill="#C9772F"/><circle cx="349.8" cy="170.8" r="13.2" fill="#C9772F"/><circle cx="378.6" cy="189.3" r="13.2" fill="#C9772F"/><circle cx="401.0" cy="215.1" r="13.2" fill="#C9772F"/><circle cx="415.1" cy="246.2" r="13.2" fill="#C9772F"/>
      <circle cx="300" cy="280" r="120" fill="#C9772F"/>
      <circle cx="300" cy="280" r="103.2" fill="#F0B268" opacity="0.35"/>
      <clipPath id="clip300280"><circle cx="300" cy="280" r="96"/></clipPath>
      <g clip-path="url(#clip300280)"><line x1="213.60000000000002" y1="208" x2="386.4" y2="208" stroke="#7B3F00" stroke-width="5.3999999999999995" opacity="0.55" stroke-linecap="round"/><line x1="228" y1="193.60000000000002" x2="228" y2="366.4" stroke="#7B3F00" stroke-width="5.3999999999999995" opacity="0.35" stroke-linecap="round"/><line x1="213.60000000000002" y1="232" x2="386.4" y2="232" stroke="#7B3F00" stroke-width="5.3999999999999995" opacity="0.55" stroke-linecap="round"/><line x1="252" y1="193.60000000000002" x2="252" y2="366.4" stroke="#7B3F00" stroke-width="5.3999999999999995" opacity="0.35" stroke-linecap="round"/><line x1="213.60000000000002" y1="256" x2="386.4" y2="256" stroke="#7B3F00" stroke-width="5.3999999999999995" opacity="0.55" stroke-linecap="round"/><line x1="276" y1="193.60000000000002" x2="276" y2="366.4" stroke="#7B3F00" stroke-width="5.3999999999999995" opacity="0.35" stroke-linecap="round"/><line x1="213.60000000000002" y1="280" x2="386.4" y2="280" stroke="#7B3F00" stroke-width="5.3999999999999995" opacity="0.55" stroke-linecap="round"/><line x1="300" y1="193.60000000000002" x2="300" y2="366.4" stroke="#7B3F00" stroke-width="5.3999999999999995" opacity="0.35" stroke-linecap="round"/><line x1="213.60000000000002" y1="304" x2="386.4" y2="304" stroke="#7B3F00" stroke-width="5.3999999999999995" opacity="0.55" stroke-linecap="round"/><line x1="324" y1="193.60000000000002" x2="324" y2="366.4" stroke="#7B3F00" stroke-width="5.3999999999999995" opacity="0.35" stroke-linecap="round"/><line x1="213.60000000000002" y1="328" x2="386.4" y2="328" stroke="#7B3F00" stroke-width="5.3999999999999995" opacity="0.55" stroke-linecap="round"/><line x1="348" y1="193.60000000000002" x2="348" y2="366.4" stroke="#7B3F00" stroke-width="5.3999999999999995" opacity="0.35" stroke-linecap="round"/><line x1="213.60000000000002" y1="352" x2="386.4" y2="352" stroke="#7B3F00" stroke-width="5.3999999999999995" opacity="0.55" stroke-linecap="round"/><line x1="372" y1="193.60000000000002" x2="372" y2="366.4" stroke="#7B3F00" stroke-width="5.3999999999999995" opacity="0.35" stroke-linecap="round"/></g>
      <circle cx="313.9" cy="324.6" r="5.2" fill="#7B3F00" opacity="0.5"/><circle cx="223.4" cy="299.7" r="3.8" fill="#7B3F00" opacity="0.5"/><circle cx="386.1" cy="261.3" r="6.0" fill="#7B3F00" opacity="0.5"/><circle cx="323.6" cy="307.2" r="5.2" fill="#7B3F00" opacity="0.5"/><circle cx="227.3" cy="342.2" r="3.1" fill="#7B3F00" opacity="0.5"/><circle cx="356.8" cy="345.5" r="5.7" fill="#7B3F00" opacity="0.5"/><circle cx="304.6" cy="265.8" r="6.3" fill="#7B3F00" opacity="0.5"/><circle cx="305.0" cy="262.4" r="6.6" fill="#7B3F00" opacity="0.5"/><circle cx="251.5" cy="268.9" r="4.2" fill="#7B3F00" opacity="0.5"/><circle cx="266.8" cy="292.6" r="5.1" fill="#7B3F00" opacity="0.5"/><circle cx="321.0" cy="270.0" r="2.6" fill="#7B3F00" opacity="0.5"/><circle cx="244.6" cy="312.9" r="2.6" fill="#7B3F00" opacity="0.5"/><circle cx="267.9" cy="355.4" r="2.8" fill="#7B3F00" opacity="0.5"/><circle cx="351.4" cy="294.7" r="4.8" fill="#7B3F00" opacity="0.5"/><circle cx="374.3" cy="290.6" r="6.2" fill="#7B3F00" opacity="0.5"/><circle cx="289.1" cy="261.6" r="4.6" fill="#7B3F00" opacity="0.5"/><circle cx="285.2" cy="292.5" r="5.9" fill="#7B3F00" opacity="0.5"/><circle cx="296.9" cy="277.5" r="3.4" fill="#7B3F00" opacity="0.5"/><circle cx="298.3" cy="223.3" r="3.2" fill="#7B3F00" opacity="0.5"/><circle cx="316.2" cy="345.9" r="2.7" fill="#7B3F00" opacity="0.5"/><circle cx="219.9" cy="320.3" r="3.7" fill="#7B3F00" opacity="0.5"/><circle cx="330.2" cy="195.2" r="3.7" fill="#7B3F00" opacity="0.5"/><circle cx="308.2" cy="187.3" r="4.6" fill="#7B3F00" opacity="0.5"/><circle cx="288.2" cy="215.3" r="3.8" fill="#7B3F00" opacity="0.5"/><circle cx="375.5" cy="329.8" r="3.2" fill="#7B3F00" opacity="0.5"/><circle cx="278.9" cy="351.8" r="4.4" fill="#7B3F00" opacity="0.5"/>
      <circle cx="266.4" cy="244" r="24" fill="#ffffff" opacity="0.14"/>
    </g>
  <text x="300" y="470" text-anchor="middle" font-family="Georgia, serif" font-size="30" fill="#7B3F00">Maai Ka Thekuaa</text>
</svg>