<svg xmlns="http://www.w3.org/2000/svg" viewBox="0 0 800 560" width="800" height="560">
  <rect width="800" height="560" fill="#FBE7CE"/>
  <ellipse cx="630.0" cy="280.0" rx="50.6" ry="23.0" transform="rotate(0 630.0 280.0)" fill="#7B3F00" opacity="0.09"/><ellipse cx="612.5" cy="368.0" rx="50.6" ry="23.0" transform="rotate(22.5 612.5 368.0)" fill="#7B3F00" opacity="0.09"/><ellipse cx="562.6" cy="442.6" rx="50.6" ry="23.0" transform="rotate(45 562.6 442.6)" fill="#7B3F00" opacity="0.09"/><ellipse cx="488.0" cy="492.5" rx="50.6" ry="23.0" transform="rotate(67.5 488.0 492.5)" fill="#7B3F00" opacity="0.09"/><ellipse cx="400.0" cy="510.0" rx="50.6" ry="23.0" transform="rotate(90 400.0 510.0)" fill="#7B3F00" opacity="0.09"/><ellipse cx="312.0" cy="492.5" rx="50.6" ry="23.0" transform="rotate(112.5 312.0 492.5)" fill="#7B3F00" opacity="0.09"/><ellipse cx="237.4" cy="442.6" rx="50.6" ry="23.0" transform="rotate(135 237.4 442.6)" fill="#7B3F00" opacity="0.09"/><ellipse cx="187.5" cy="368.0" rx="50.6" ry="23.0" transform="rotate(157.5 187.5 368.0)" fill="#7B3F00" opacity="0.09"/><ellipse cx="170.0" cy="280.0" rx="50.6" ry="23.0" transform="rotate(180 170.0 280.0)" fill="#7B3F00" opacity="0.09"/><ellipse cx="187.5" cy="192.0" rx="50.6" ry="23.0" transform="rotate(202.49999999999997 187.5 192.0)" fill="#7B3F00" opacity="0.09"/><ellipse cx="237.4" cy="117.4" rx="50.6" ry="23.0" transform="rotate(225 237.4 117.4)" fill="#7B3F00" opacity="0.09"/><ellipse cx="312.0" cy="67.5" rx="50.6" ry="23.0" transform="rotate(247.49999999999997 312.0 67.5)" fill="#7B3F00" opacity="0.09"/><ellipse cx="400.0" cy="50.0" rx="50.6" ry="23.0" transform="rotate(270 400.0 50.0)" fill="#7B3F00" opacity="0.09"/><ellipse cx="488.0" cy="67.5" rx="50.6" ry="23.0" transform="rotate(292.50000000000006 488.0 67.5)" fill="#7B3F00" opacity="0.09"/><ellipse cx="562.6" cy="117.4" rx="50.6" ry="23.0" transform="rotate(315 562.6 117.4)" fill="#7B3F00" opacity="0.09"/><ellipse cx="612.5" cy="192.0" rx="50.6" ry="23.0" transform="rotate(337.49999999999994 612.5 192.0)" fill="#7B3F00" opacity="0.09"/>
  <rect x="40" y="40" width="720" height="480" rx="18" fill="none" stroke="#C9772F" stroke-width="3" stroke-dasharray="10 8" opacity="0.5"/>
  <!-- chulha / kadhai scene -->
  <path d="M250 380 h300 a20 20 0 0 1 -20 60 h-260 a20 20 0 0 1 -20 -60 z" fill="#8A5A2B"/>
  <ellipse cx="400" cy="378" rx="152" ry="34" fill="#A9713A"/>
  <ellipse cx="400" cy="372" rx="140" ry="28" fill="#E7A64B" opacity="0.75"/>
  
    <g>
      <circle cx="379.0" cy="366.0" r="3.7" fill="#C0692A"/><circle cx="377.6" cy="375.6" r="3.7" fill="#C0692A"/><circle cx="373.6" cy="384.4" r="3.7" fill="#C0692A"/><circle cx="367.3" cy="391.7" r="3.7" fill="#C0692A"/><circle cx="359.1" cy="396.9" r="3.7" fill="#C0692A"/><circle cx="349.8" cy="399.7" r="3.7" fill="#C0692A"/><circle cx="340.2" cy="399.7" r="3.7" fill="#C0692A"/><circle cx="330.9" cy="396.9" r="3.7" fill="#C0692A"/><circle cx="322.7" cy="391.7" r="3.7" fill="#C0692A"/><circle cx="316.4" cy="384.4" r="3.7" fill="#C0692A"/><circle cx="312.4" cy="375.6" r="3.7" fill="#C0692A"/><circle cx="311.0" cy="366.0" r="3.7" fill="#C0692A"/><circle cx="312.4" cy="356.4" r="3.7" fill="#C0692A"/><circle cx="316.4" cy="347.6" r="3.7" fill="#C0692A"/><circle cx="322.7" cy="340.3" r="3.7" fill="#C0692A"/><circle cx="330.9" cy="335.1" r="3.7" fill="#C0692A"/><circle cx="340.2" cy="332.3" r="3.7" fill="#C0692A"/><circle cx="349.8" cy="332.3" r="3.7" fill="#C0692A"/><circle cx="359.1" cy="335.1" r="3.7" fill="#C0692A"/><circle cx="367.3" cy="340.3" r="3.7" fill="#C0692A"/><circle cx="373.6" cy="347.6" r="3.7" fill="#C0692A"/><circle cx="377.6" cy="356.4" r="3.7" fill="#C0692A"/>
      <circle cx="345" cy="366" r="34" fill="#C0692A"/>
      <circle cx="345" cy="366" r="29.24" fill="#EFB268" opacity="0.35"/>
      <clipPath id="clip345366"><circle cx="345" cy="366" r="27.200000000000003"/></clipPath>
      <g clip-path="url(#clip345366)"><line x1="320.52" y1="345.6" x2="369.48" y2="345.6" stroke="#6E3805" stroke-width="1.53" opacity="0.55" stroke-linecap="round"/><line x1="324.6" y1="341.52" x2="324.6" y2="390.48" stroke="#6E3805" stroke-width="1.53" opacity="0.35" stroke-linecap="round"/><line x1="320.52" y1="352.4" x2="369.48" y2="352.4" stroke="#6E3805" stroke-width="1.53" opacity="0.55" stroke-linecap="round"/><line x1="331.4" y1="341.52" x2="331.4" y2="390.48" stroke="#6E3805" stroke-width="1.53" opacity="0.35" stroke-linecap="round"/><line x1="320.52" y1="359.2" x2="369.48" y2="359.2" stroke="#6E3805" stroke-width="1.53" opacity="0.55" stroke-linecap="round"/><line x1="338.2" y1="341.52" x2="338.2" y2="390.48" stroke="#6E3805" stroke-width="1.53" opacity="0.35" stroke-linecap="round"/><line x1="320.52" y1="366" x2="369.48" y2="366" stroke="#6E3805" stroke-width="1.53" opacity="0.55" stroke-linecap="round"/><line x1="345" y1="341.52" x2="345" y2="390.48" stroke="#6E3805" stroke-width="1.53" opacity="0.35" stroke-linecap="round"/><line x1="320.52" y1="372.8" x2="369.48" y2="372.8" stroke="#6E3805" stroke-width="1.53" opacity="0.55" stroke-linecap="round"/><line x1="351.8" y1="341.52" x2="351.8" y2="390.48" stroke="#6E3805" stroke-width="1.53" opacity="0.35" stroke-linecap="round"/><line x1="320.52" y1="379.6" x2="369.48" y2="379.6" stroke="#6E3805" stroke-width="1.53" opacity="0.55" stroke-linecap="round"/><line x1="358.6" y1="341.52" x2="358.6" y2="390.48" stroke="#6E3805" stroke-width="1.53" opacity="0.35" stroke-linecap="round"/><line x1="320.52" y1="386.4" x2="369.48" y2="386.4" stroke="#6E3805" stroke-width="1.53" opacity="0.55" stroke-linecap="round"/><line x1="365.4" y1="341.52" x2="365.4" y2="390.48" stroke="#6E3805" stroke-width="1.53" opacity="0.35" stroke-linecap="round"/></g>
      <circle cx="346.7" cy="348.5" r="0.8" fill="#6E3805" opacity="0.5"/><circle cx="336.9" cy="359.3" r="0.9" fill="#6E3805" opacity="0.5"/><circle cx="322.2" cy="368.9" r="1.4" fill="#6E3805" opacity="0.5"/><circle cx="350.2" cy="347.0" r="1.5" fill="#6E3805" opacity="0.5"/><circle cx="371.5" cy="359.8" r="1.9" fill="#6E3805" opacity="0.5"/><circle cx="327.9" cy="376.9" r="1.7" fill="#6E3805" opacity="0.5"/><circle cx="324.7" cy="359.6" r="1.4" fill="#6E3805" opacity="0.5"/><circle cx="350.9" cy="346.1" r="1.6" fill="#6E3805" opacity="0.5"/><circle cx="321.8" cy="355.3" r="1.6" fill="#6E3805" opacity="0.5"/><circle cx="339.5" cy="391.6" r="1.9" fill="#6E3805" opacity="0.5"/><circle cx="338.7" cy="373.9" r="1.7" fill="#6E3805" opacity="0.5"/><circle cx="352.1" cy="391.3" r="1.5" fill="#6E3805" opacity="0.5"/><circle cx="345.3" cy="389.1" r="0.8" fill="#6E3805" opacity="0.5"/><circle cx="366.0" cy="350.4" r="1.1" fill="#6E3805" opacity="0.5"/><circle cx="321.1" cy="354.1" r="1.7" fill="#6E3805" opacity="0.5"/><circle cx="340.1" cy="353.4" r="0.9" fill="#6E3805" opacity="0.5"/><circle cx="339.1" cy="355.6" r="1.4" fill="#6E3805" opacity="0.5"/><circle cx="356.3" cy="359.8" r="1.3" fill="#6E3805" opacity="0.5"/><circle cx="360.5" cy="348.3" r="1.2" fill="#6E3805" opacity="0.5"/><circle cx="355.3" cy="360.1" r="1.6" fill="#6E3805" opacity="0.5"/><circle cx="318.3" cy="366.7" r="1.8" fill="#6E3805" opacity="0.5"/><circle cx="363.8" cy="367.9" r="1.0" fill="#6E3805" opacity="0.5"/><circle cx="353.8" cy="359.2" r="1.0" fill="#6E3805" opacity="0.5"/><circle cx="328.0" cy="360.4" r="1.0" fill="#6E3805" opacity="0.5"/><circle cx="326.9" cy="379.7" r="1.6" fill="#6E3805" opacity="0.5"/><circle cx="355.0" cy="352.7" r="0.9" fill="#6E3805" opacity="0.5"/>
      <circle cx="335.48" cy="355.8" r="6.800000000000001" fill="#ffffff" opacity="0.14"/>
    </g>
  
    <g>
      <circle cx="449.0" cy="372.0" r="3.7" fill="#CB7C34"/><circle cx="447.6" cy="381.6" r="3.7" fill="#CB7C34"/><circle cx="443.6" cy="390.4" r="3.7" fill="#CB7C34"/><circle cx="437.3" cy="397.7" r="3.7" fill="#CB7C34"/><circle cx="429.1" cy="402.9" r="3.7" fill="#CB7C34"/><circle cx="419.8" cy="405.7" r="3.7" fill="#CB7C34"/><circle cx="410.2" cy="405.7" r="3.7" fill="#CB7C34"/><circle cx="400.9" cy="402.9" r="3.7" fill="#CB7C34"/><circle cx="392.7" cy="397.7" r="3.7" fill="#CB7C34"/><circle cx="386.4" cy="390.4" r="3.7" fill="#CB7C34"/><circle cx="382.4" cy="381.6" r="3.7" fill="#CB7C34"/><circle cx="381.0" cy="372.0" r="3.7" fill="#CB7C34"/><circle cx="382.4" cy="362.4" r="3.7" fill="#CB7C34"/><circle cx="386.4" cy="353.6" r="3.7" fill="#CB7C34"/><circle cx="392.7" cy="346.3" r="3.7" fill="#CB7C34"/><circle cx="400.9" cy="341.1" r="3.7" fill="#CB7C34"/><circle cx="410.2" cy="338.3" r="3.7" fill="#CB7C34"/><circle cx="419.8" cy="338.3" r="3.7" fill="#CB7C34"/><circle cx="429.1" cy="341.1" r="3.7" fill="#CB7C34"/><circle cx="437.3" cy="346.3" r="3.7" fill="#CB7C34"/><circle cx="443.6" cy="353.6" r="3.7" fill="#CB7C34"/><circle cx="447.6" cy="362.4" r="3.7" fill="#CB7C34"/>
      <circle cx="415" cy="372" r="34" fill="#CB7C34"/>
      <circle cx="415" cy="372" r="29.24" fill="#F2BC79" opacity="0.35"/>
      <clipPath id="clip415372"><circle cx="415" cy="372" r="27.200000000000003"/></clipPath>
      <g clip-path="url(#clip415372)"><line x1="390.52" y1="351.6" x2="439.48" y2="351.6" stroke="#7B3F00" stroke-width="1.53" opacity="0.55" stroke-linecap="round"/><line x1="394.6" y1="347.52" x2="394.6" y2="396.48" stroke="#7B3F00" stroke-width="1.53" opacity="0.35" stroke-linecap="round"/><line x1="390.52" y1="358.4" x2="439.48" y2="358.4" stroke="#7B3F00" stroke-width="1.53" opacity="0.55" stroke-linecap="round"/><line x1="401.4" y1="347.52" x2="401.4" y2="396.48" stroke="#7B3F00" stroke-width="1.53" opacity="0.35" stroke-linecap="round"/><line x1="390.52" y1="365.2" x2="439.48" y2="365.2" stroke="#7B3F00" stroke-width="1.53" opacity="0.55" stroke-linecap="round"/><line x1="408.2" y1="347.52" x2="408.2" y2="396.48" stroke="#7B3F00" stroke-width="1.53" opacity="0.35" stroke-linecap="round"/><line x1="390.52" y1="372" x2="439.48" y2="372" stroke="#7B3F00" stroke-width="1.53" opacity="0.55" stroke-linecap="round"/><line x1="415" y1="347.52" x2="415" y2="396.48" stroke="#7B3F00" stroke-width="1.53" opacity="0.35" stroke-linecap="round"/><line x1="390.52" y1="378.8" x2="439.48" y2="378.8" stroke="#7B3F00" stroke-width="1.53" opacity="0.55" stroke-linecap="round"/><line x1="421.8" y1="347.52" x2="421.8" y2="396.48" stroke="#7B3F00" stroke-width="1.53" opacity="0.35" stroke-linecap="round"/><line x1="390.52" y1="385.6" x2="439.48" y2="385.6" stroke="#7B3F00" stroke-width="1.53" opacity="0.55" stroke-linecap="round"/><line x1="428.6" y1="347.52" x2="428.6" y2="396.48" stroke="#7B3F00" stroke-width="1.53" opacity="0.35" stroke-linecap="round"/><line x1="390.52" y1="392.4" x2="439.48" y2="392.4" stroke="#7B3F00" stroke-width="1.53" opacity="0.55" stroke-linecap="round"/><line x1="435.4" y1="347.52" x2="435.4" y2="396.48" stroke="#7B3F00" stroke-width="1.53" opacity="0.35" stroke-linecap="round"/></g>
      <circle cx="405.0" cy="364.6" r="1.0" fill="#7B3F00" opacity="0.5"/><circle cx="403.3" cy="367.7" r="1.5" fill="#7B3F00" opacity="0.5"/><circle cx="404.3" cy="388.3" r="1.4" fill="#7B3F00" opacity="0.5"/><circle cx="400.8" cy="386.0" r="1.0" fill="#7B3F00" opacity="0.5"/><circle cx="435.3" cy="382.2" r="1.0" fill="#7B3F00" opacity="0.5"/><circle cx="425.5" cy="358.1" r="1.9" fill="#7B3F00" opacity="0.5"/><circle cx="420.8" cy="378.1" r="1.6" fill="#7B3F00" opacity="0.5"/><circle cx="410.2" cy="382.0" r="0.8" fill="#7B3F00" opacity="0.5"/><circle cx="418.0" cy="367.5" r="1.2" fill="#7B3F00" opacity="0.5"/><circle cx="422.5" cy="378.4" r="0.7" fill="#7B3F00" opacity="0.5"/><circle cx="390.8" cy="364.7" r="1.2" fill="#7B3F00" opacity="0.5"/><circle cx="394.8" cy="363.7" r="0.7" fill="#7B3F00" opacity="0.5"/><circle cx="392.0" cy="360.4" r="1.0" fill="#7B3F00" opacity="0.5"/><circle cx="420.2" cy="372.1" r="1.2" fill="#7B3F00" opacity="0.5"/><circle cx="413.8" cy="390.8" r="0.8" fill="#7B3F00" opacity="0.5"/><circle cx="417.2" cy="350.3" r="1.5" fill="#7B3F00" opacity="0.5"/><circle cx="439.3" cy="361.7" r="1.2" fill="#7B3F00" opacity="0.5"/><circle cx="424.3" cy="394.4" r="1.8" fill="#7B3F00" opacity="0.5"/><circle cx="434.7" cy="363.7" r="1.4" fill="#7B3F00" opacity="0.5"/><circle cx="395.0" cy="357.5" r="1.5" fill="#7B3F00" opacity="0.5"/><circle cx="394.3" cy="358.2" r="1.6" fill="#7B3F00" opacity="0.5"/><circle cx="411.3" cy="378.1" r="1.0" fill="#7B3F00" opacity="0.5"/><circle cx="416.3" cy="398.3" r="1.2" fill="#7B3F00" opacity="0.5"/><circle cx="411.8" cy="347.0" r="1.7" fill="#7B3F00" opacity="0.5"/><circle cx="418.0" cy="385.3" r="1.7" fill="#7B3F00" opacity="0.5"/><circle cx="429.9" cy="385.0" r="1.7" fill="#7B3F00" opacity="0.5"/>
      <circle cx="405.48" cy="361.8" r="6.800000000000001" fill="#ffffff" opacity="0.14"/>
    </g>
  
    <g>
      <circle cx="496.0" cy="362.0" r="3.1" fill="#B5601F"/><circle cx="494.9" cy="369.9" r="3.1" fill="#B5601F"/><circle cx="491.6" cy="377.1" r="3.1" fill="#B5601F"/><circle cx="486.3" cy="383.2" r="3.1" fill="#B5601F"/><circle cx="479.6" cy="387.5" r="3.1" fill="#B5601F"/><circle cx="472.0" cy="389.7" r="3.1" fill="#B5601F"/><circle cx="464.0" cy="389.7" r="3.1" fill="#B5601F"/><circle cx="456.4" cy="387.5" r="3.1" fill="#B5601F"/><circle cx="449.7" cy="383.2" r="3.1" fill="#B5601F"/><circle cx="444.4" cy="377.1" r="3.1" fill="#B5601F"/><circle cx="441.1" cy="369.9" r="3.1" fill="#B5601F"/><circle cx="440.0" cy="362.0" r="3.1" fill="#B5601F"/><circle cx="441.1" cy="354.1" r="3.1" fill="#B5601F"/><circle cx="444.4" cy="346.9" r="3.1" fill="#B5601F"/><circle cx="449.7" cy="340.8" r="3.1" fill="#B5601F"/><circle cx="456.4" cy="336.5" r="3.1" fill="#B5601F"/><circle cx="464.0" cy="334.3" r="3.1" fill="#B5601F"/><circle cx="472.0" cy="334.3" r="3.1" fill="#B5601F"/><circle cx="479.6" cy="336.5" r="3.1" fill="#B5601F"/><circle cx="486.3" cy="340.8" r="3.1" fill="#B5601F"/><circle cx="491.6" cy="346.9" r="3.1" fill="#B5601F"/><circle cx="494.9" cy="354.1" r="3.1" fill="#B5601F"/>
      <circle cx="468" cy="362" r="28" fill="#B5601F"/>
      <circle cx="468" cy="362" r="24.08" fill="#E7A960" opacity="0.35"/>
      <clipPath id="clip468362"><circle cx="468" cy="362" r="22.400000000000002"/></clipPath>
      <g clip-path="url(#clip468362)"><line x1="447.84" y1="345.2" x2="488.16" y2="345.2" stroke="#63340A" stroke-width="1.26" opacity="0.55" stroke-linecap="round"/><line x1="451.2" y1="341.84" x2="451.2" y2="382.16" stroke="#63340A" stroke-width="1.26" opacity="0.35" stroke-linecap="round"/><line x1="447.84" y1="350.8" x2="488.16" y2="350.8" stroke="#63340A" stroke-width="1.26" opacity="0.55" stroke-linecap="round"/><line x1="456.8" y1="341.84" x2="456.8" y2="382.16" stroke="#63340A" stroke-width="1.26" opacity="0.35" stroke-linecap="round"/><line x1="447.84" y1="356.4" x2="488.16" y2="356.4" stroke="#63340A" stroke-width="1.26" opacity="0.55" stroke-linecap="round"/><line x1="462.4" y1="341.84" x2="462.4" y2="382.16" stroke="#63340A" stroke-width="1.26" opacity="0.35" stroke-linecap="round"/><line x1="447.84" y1="362" x2="488.16" y2="362" stroke="#63340A" stroke-width="1.26" opacity="0.55" stroke-linecap="round"/><line x1="468" y1="341.84" x2="468" y2="382.16" stroke="#63340A" stroke-width="1.26" opacity="0.35" stroke-linecap="round"/><line x1="447.84" y1="367.6" x2="488.16" y2="367.6" stroke="#63340A" stroke-width="1.26" opacity="0.55" stroke-linecap="round"/><line x1="473.6" y1="341.84" x2="473.6" y2="382.16" stroke="#63340A" stroke-width="1.26" opacity="0.35" stroke-linecap="round"/><line x1="447.84" y1="373.2" x2="488.16" y2="373.2" stroke="#63340A" stroke-width="1.26" opacity="0.55" stroke-linecap="round"/><line x1="479.2" y1="341.84" x2="479.2" y2="382.16" stroke="#63340A" stroke-width="1.26" opacity="0.35" stroke-linecap="round"/><line x1="447.84" y1="378.8" x2="488.16" y2="378.8" stroke="#63340A" stroke-width="1.26" opacity="0.55" stroke-linecap="round"/><line x1="484.8" y1="341.84" x2="484.8" y2="382.16" stroke="#63340A" stroke-width="1.26" opacity="0.35" stroke-linecap="round"/></g>
      <circle cx="466.3" cy="362.7" r="1.0" fill="#63340A" opacity="0.5"/><circle cx="456.3" cy="361.8" r="0.8" fill="#63340A" opacity="0.5"/><circle cx="471.6" cy="374.1" r="1.1" fill="#63340A" opacity="0.5"/><circle cx="484.1" cy="357.8" r="1.4" fill="#63340A" opacity="0.5"/><circle cx="473.7" cy="375.0" r="1.2" fill="#63340A" opacity="0.5"/><circle cx="464.7" cy="373.1" r="0.7" fill="#63340A" opacity="0.5"/><circle cx="463.8" cy="345.4" r="1.5" fill="#63340A" opacity="0.5"/><circle cx="479.0" cy="346.0" r="1.0" fill="#63340A" opacity="0.5"/><circle cx="475.4" cy="368.7" r="0.6" fill="#63340A" opacity="0.5"/><circle cx="480.1" cy="357.3" r="0.6" fill="#63340A" opacity="0.5"/><circle cx="466.5" cy="344.9" r="0.6" fill="#63340A" opacity="0.5"/><circle cx="479.6" cy="355.3" r="0.9" fill="#63340A" opacity="0.5"/><circle cx="472.9" cy="358.5" r="0.9" fill="#63340A" opacity="0.5"/><circle cx="474.8" cy="367.3" r="1.1" fill="#63340A" opacity="0.5"/><circle cx="489.1" cy="354.6" r="0.9" fill="#63340A" opacity="0.5"/><circle cx="470.3" cy="358.4" r="0.7" fill="#63340A" opacity="0.5"/><circle cx="473.3" cy="379.8" r="0.9" fill="#63340A" opacity="0.5"/><circle cx="455.1" cy="365.8" r="1.0" fill="#63340A" opacity="0.5"/><circle cx="483.5" cy="362.8" r="1.2" fill="#63340A" opacity="0.5"/><circle cx="465.0" cy="376.8" r="1.2" fill="#63340A" opacity="0.5"/><circle cx="461.3" cy="344.4" r="1.2" fill="#63340A" opacity="0.5"/><circle cx="457.9" cy="347.0" r="0.8" fill="#63340A" opacity="0.5"/><circle cx="452.0" cy="352.0" r="1.2" fill="#63340A" opacity="0.5"/><circle cx="478.0" cy="355.5" r="1.0" fill="#63340A" opacity="0.5"/><circle cx="487.7" cy="366.0" r="1.5" fill="#63340A" opacity="0.5"/><circle cx="454.9" cy="375.1" r="1.2" fill="#63340A" opacity="0.5"/>
      <circle cx="460.16" cy="353.6" r="5.6000000000000005" fill="#ffffff" opacity="0.14"/>
    </g>
  <g opacity="0.55" stroke="#C9531B" stroke-width="5" fill="none" stroke-linecap="round">
    <path d="M340 320 c-16 -26 12 -40 -4 -66"/>
    <path d="M400 312 c-16 -26 12 -40 -4 -66"/>
    <path d="M460 322 c-16 -26 12 -40 -4 -66"/>
  </g>
  <text x="400" y="500" text-anchor="middle" font-family="Georgia, serif" font-size="30" fill="#5A3218">त्योहारों का स्वाद</text>
</svg>